<svg width="582" height="604" viewBox="0 0 582 604" fill="none" xmlns="http://www.w3.org/2000/svg">
<path fill-rule="evenodd" clip-rule="evenodd" d="M222.912 597.134L219.246 596.462L215.595 595.749L211.96 594.996L208.342 594.203L204.741 593.369L201.157 592.494L197.591 591.579L194.043 590.624L190.514 589.628L187.004 588.593L183.514 587.517L180.044 586.401L176.595 585.245L173.167 584.049L169.761 582.813L166.377 581.537L163.016 580.222L159.679 578.866L156.365 577.471L153.076 576.035L149.812 574.561L146.574 573.046L143.362 571.492L140.178 569.898L137.021 568.264L133.892 566.591L130.793 564.878L127.723 563.126L124.684 561.335L121.676 559.505L118.7 557.635L115.757 555.726L112.847 553.779L109.971 551.793L107.13 549.769L104.325 547.706L101.556 545.605L98.8242 543.467L96.1305 541.292L93.4755 539.079L90.86 536.83L88.2847 534.545L85.7503 532.225L83.2574 529.869L80.8069 527.479L78.3993 525.055L76.0353 522.597L73.7155 520.107L71.4403 517.586L69.2104 515.034L67.0262 512.451L64.8882 509.84L62.7967 507.2L60.7521 504.533L58.7549 501.84L56.8052 499.122L54.9034 496.379L53.0499 493.613L51.2447 490.825L49.488 488.015L47.7801 485.185L46.1211 482.337L44.5109 479.47L42.9497 476.586L41.4375 473.686L39.9741 470.772L38.5597 467.843L37.1939 464.903L35.8768 461.95L34.608 458.988L33.3873 456.016L32.2144 453.036L31.0892 450.048L30.0111 447.055L28.9798 444.057L27.9948 441.055L27.0557 438.05L26.162 435.044L25.3131 432.037L24.5084 429.03L23.7473 426.024L23.0292 423.021L22.3535 420.02L21.7193 417.024L21.126 414.033L20.5729 411.048L20.0591 408.069L19.584 405.098L19.1468 402.134L18.7469 399.18L18.3837 396.235L18.0562 393.3L17.7641 390.376L17.5066 387.462L17.2831 384.561L17.0929 381.671L16.9357 378.794L16.8106 375.929L16.7173 373.078L16.6552 370.24L16.6238 367.416L16.6226 364.607L16.6512 361.811L16.7091 359.03L16.7958 356.264L16.9111 353.514L17.0546 350.778L17.2256 348.058L17.4241 345.353L17.6497 342.664L17.9019 339.992L18.1806 337.335L18.4854 334.694L18.8162 332.07L19.1724 329.463L19.554 326.872L19.9606 324.297L20.3921 321.74L20.8482 319.2L21.3285 316.676L21.833 314.17L22.3613 311.681L22.9133 309.21L23.4885 306.757L24.0869 304.321L24.7081 301.902L25.3517 299.502L26.0177 297.12L26.7056 294.756L27.415 292.41L28.1457 290.083L28.8972 287.774L29.6692 285.483L30.4611 283.212L31.2726 280.958L32.1031 278.724L32.9521 276.509L33.819 274.312L34.7032 272.134L35.6041 269.975L36.521 267.835L37.4532 265.714L38.4 263.611L39.361 261.526L40.3353 259.461L41.3225 257.413L42.322 255.384L43.3331 253.372L44.3554 251.379L45.3884 249.403L46.4315 247.444L47.4843 245.503L48.5462 243.579L49.6169 241.671L50.6959 239.78L51.7827 237.905L52.8771 236.045L53.9785 234.202L55.0867 232.373L56.2013 230.56L57.322 228.761L58.4484 226.977L59.5802 225.207L60.7172 223.45L61.859 221.707L63.0055 219.977L64.1563 218.259L65.3111 216.554L66.4699 214.86L67.6324 213.178L68.7982 211.507L69.9673 209.847L71.1395 208.197L72.3145 206.556L73.4923 204.925L74.6726 203.304L75.8553 201.69L77.0404 200.085L78.2278 198.487L79.4173 196.897L80.609 195.313L81.8028 193.736L82.9987 192.165L84.1968 190.599L85.397 189.039L86.5994 187.483L87.8041 185.931L89.0111 184.383L90.2205 182.838L91.4324 181.297L92.647 179.757L93.8643 178.22L95.0845 176.685L96.3077 175.151L97.5342 173.617L98.764 172.084L99.9973 170.551L101.234 169.017L102.476 167.482L103.721 165.946L104.971 164.408L106.225 162.869L107.485 161.326L108.75 159.781L110.02 158.232L111.296 156.679L112.579 155.122L113.868 153.561L115.164 151.995L116.468 150.424L117.779 148.847L119.099 147.264L120.427 145.675L121.765 144.08L123.112 142.478L124.469 140.869L125.837 139.253L127.217 137.63L128.608 135.999L130.011 134.361L131.428 132.715L132.858 131.062L134.302 129.401L135.762 127.732L137.237 126.056L138.728 124.372L140.236 122.681L141.762 120.984L143.306 119.279L144.87 117.568L146.453 115.851L148.057 114.129L149.682 112.401L151.329 110.669L152.999 108.932L154.692 107.191L156.409 105.448L158.15 103.702L159.918 101.955L161.711 100.206L163.53 98.4571L165.377 96.7087L167.252 94.9616L169.155 93.2167L171.087 91.4749L173.049 89.7371L175.04 88.0043L177.062 86.2776L179.114 84.5579L181.198 82.8464L183.313 81.1441L185.461 79.4521L187.64 77.7717L189.852 76.1039L192.097 74.4501L194.374 72.8114L196.685 71.1892L199.029 69.5845L201.405 67.9988L203.816 66.4333L206.259 64.8894L208.736 63.3683L211.245 61.8713L213.788 60.3998L216.363 58.9551L218.971 57.5385L221.611 56.1512L224.283 54.7946L226.986 53.4697L229.721 52.178L232.486 50.9205L235.281 49.6985L238.106 48.513L240.961 47.3652L243.843 46.2562L246.754 45.187L249.692 44.1586L252.657 43.172L255.647 42.2281L258.663 41.3279L261.703 40.4721L264.766 39.6617L267.853 38.8975L270.961 38.1801L274.091 37.5102L277.241 36.8885L280.411 36.3157L283.599 35.7923L286.805 35.3188L290.027 34.8957L293.266 34.5234L296.52 34.2024L299.788 33.933L303.069 33.7155L306.362 33.5501L309.667 33.4372L312.983 33.3769L316.309 33.3694L319.643 33.4148L322.985 33.5132L326.334 33.6646L329.69 33.8692L333.051 34.1268L336.417 34.4375L339.786 34.8013L343.159 35.2181L346.534 35.6878L349.91 36.2103L353.286 36.7856L356.663 37.4134L360.038 38.0938L363.412 38.8266L366.783 39.6116L370.151 40.4488L373.515 41.338L376.874 42.2791L380.227 43.272L383.574 44.3167L386.913 45.413L390.245 46.5608L393.568 47.7601L396.881 49.0107L400.183 50.3124L403.474 51.6649L406.754 53.068L410.021 54.5216L413.274 56.0252L416.514 57.5786L419.739 59.1814L422.949 60.8334L426.143 62.5342L429.321 64.2834L432.481 66.0806L435.624 67.9255L438.749 69.8177L441.855 71.7569L444.942 73.7425L448.01 75.7742L451.057 77.8517L454.083 79.9746L457.088 82.1424L460.071 84.3548L463.032 86.6114L465.97 88.9119L468.885 91.2559L471.777 93.6431L474.644 96.073L477.486 98.5455L480.302 101.06L483.093 103.617L485.857 106.215L488.594 108.854L491.304 111.534L493.985 114.255L496.637 117.016L499.259 119.818L501.851 122.659L504.413 125.539L506.944 128.458L509.443 131.415L511.91 134.411L514.344 137.445L516.745 140.516L519.112 143.623L521.445 146.767L523.744 149.948L526.007 153.164L528.235 156.415L530.427 159.701L532.582 163.022L534.699 166.376L536.779 169.764L538.821 173.186L540.824 176.64L542.787 180.126L544.71 183.645L546.592 187.195L548.432 190.776L550.231 194.387L551.986 198.029L553.698 201.7L555.365 205.401L556.987 209.13L558.563 212.887L560.092 216.672L561.573 220.484L563.006 224.322L564.39 228.186L565.724 232.076L567.006 235.99L568.237 239.927L569.414 243.888L570.539 247.872L571.608 251.877L572.623 255.903L573.581 259.949L574.482 264.014L575.326 268.097L576.111 272.198L576.836 276.315L577.502 280.448L578.107 284.596L578.651 288.757L579.133 292.93L579.552 297.115L579.909 301.311L580.202 305.515L580.431 309.728L580.596 313.949L580.696 318.175L580.731 322.406L580.701 326.641L580.606 330.878L580.445 335.117L580.218 339.356L579.924 343.595L579.565 347.831L579.139 352.064L578.646 356.292L578.087 360.515L577.462 364.731L576.77 368.939L576.011 373.137L575.186 377.326L574.294 381.502L573.337 385.666L572.313 389.815L571.224 393.95L570.069 398.067L568.848 402.168L567.563 406.25L566.213 410.311L564.798 414.352L563.32 418.37L561.778 422.365L560.173 426.336L558.505 430.281L556.775 434.2L554.983 438.09L553.131 441.952L551.217 445.784L549.244 449.585L547.211 453.354L545.119 457.09L542.97 460.792L540.763 464.459L538.499 468.09L536.179 471.685L533.804 475.241L531.375 478.759L528.893 482.238L526.358 485.676L523.771 489.074L521.134 492.43L518.447 495.743L515.711 499.013L512.927 502.239L510.096 505.421L507.219 508.557L504.297 511.648L501.33 514.692L498.321 517.69L495.27 520.64L492.177 523.541L489.044 526.394L485.872 529.198L482.661 531.953L479.413 534.657L476.129 537.311L472.809 539.914L469.455 542.465L466.068 544.965L462.648 547.412L459.197 549.806L455.715 552.148L452.203 554.436L448.663 556.671L445.096 558.852L441.502 560.979L437.882 563.051L434.237 565.068L430.569 567.031L426.878 568.938L423.166 570.79L419.433 572.587L415.68 574.329L411.909 576.014L408.12 577.645L404.315 579.22L400.494 580.739L396.658 582.203L392.81 583.612L388.948 584.966L385.075 586.266L381.192 587.511L377.3 588.701L373.399 589.839L369.491 590.923L365.576 591.954L361.656 592.933L357.732 593.86L353.804 594.736L349.873 595.561L345.941 596.336L342.008 597.061L338.074 597.737L334.141 598.364L330.209 598.943L326.279 599.473L322.352 599.957L318.428 600.394L314.508 600.784L310.593 601.129L306.682 601.427L302.777 601.681L298.879 601.89L294.987 602.055L291.102 602.176L287.225 602.253L283.357 602.287L279.497 602.278L275.646 602.227L271.804 602.133L267.972 601.997L264.151 601.819L260.34 601.599L256.541 601.338L252.753 601.035L248.977 600.691L245.213 600.306L241.462 599.879L237.724 599.412L234 598.904L230.29 598.355L226.593 597.764L222.912 597.134Z" fill="url(#paint0_linear_54_3)"/>
<g clip-path="url(#clip0_54_3)">
<path d="M360.811 104.483C360.732 104.498 360.613 104.52 360.47 104.546C357.66 105.062 340.671 107.967 323.542 100.735C316.286 97.6712 318.761 96.9076 302.6 86.2559C283.654 73.7679 278.791 73.8552 277.38 68.0323C274.563 56.4049 289.607 38.1263 299.564 39.3298C302.185 39.6467 304.993 41.379 309.36 40.2044C310.319 39.9463 314.519 38.8166 316.566 34.9634C318.393 31.526 316.846 29.0464 317.58 26.2273C319.508 18.8275 335.58 15.1345 349.671 17.7438C357.775 19.2445 364.079 23.3416 376.355 31.4746C397.722 45.6303 408.406 52.7081 410.807 63.5522C413.083 73.8304 407.62 78.2591 411.593 89.2616C415.292 99.5062 421.167 98.822 423.189 107.109C426.442 120.446 414.367 135.082 409.337 141.179C403.822 147.864 398.548 151.533 391.546 156.403C382.757 162.517 378.362 165.574 373.079 165.263C363.5 164.699 335.037 166.618 334.665 157.832C334.526 154.539 300.004 157.235 317.003 121.785C319.088 117.437 359.933 122.082 360.472 119.584" fill="#2F2E41"/>
<path d="M377.342 127.167L406.702 175.709L322.425 194.599L327.793 133.828L377.342 127.167Z" fill="#FFB6B6"/>
<path opacity="0.1" d="M377.342 127.167L406.702 175.709L322.425 194.599L327.793 133.828L377.342 127.167Z" fill="black"/>
<path d="M316.113 163.115L407.01 158.917L447.409 183.405L445.516 340.83L487.808 429.687L274.452 384.908L290.864 317.741L283.289 176.408L316.113 163.115Z" fill="#6E6BE8"/>
<path d="M2.44845 468.94C-0.45351 463.87 -0.796225 457.605 1.53187 452.183L36.1277 371.612C38.7097 365.599 44.2603 361.714 50.2684 361.714H487.241C493.082 361.714 498.396 365.275 501.109 371.008L538.191 449.358C540.754 454.774 540.586 461.135 537.74 466.375C534.894 471.614 529.902 474.756 524.385 474.781L15.734 477H15.6703C10.2782 477 5.33864 473.991 2.44845 468.94Z" fill="white"/>
<path d="M2.44845 468.94C-0.45351 463.87 -0.796225 457.605 1.53187 452.183L36.1277 371.612C38.7097 365.599 44.2603 361.714 50.2684 361.714H487.241C493.082 361.714 498.396 365.275 501.109 371.008L538.191 449.358C540.754 454.774 540.586 461.135 537.74 466.375C534.894 471.614 529.902 474.756 524.385 474.781L15.734 477H15.6703C10.2782 477 5.33864 473.991 2.44845 468.94ZM50.2684 363.536C44.8909 363.536 39.923 367.013 37.612 372.395L3.01616 452.965C0.932328 457.819 1.23892 463.426 3.83643 467.964C6.4235 472.485 10.844 475.178 15.6706 475.178H15.7276L524.378 472.959C529.316 472.937 533.785 470.124 536.332 465.435C538.879 460.745 539.03 455.052 536.736 450.205L499.654 371.854C497.225 366.723 492.469 363.536 487.241 363.536H50.2684Z" fill="#3F3D56"/>
<path d="M446.558 446.199L266.232 432.457C263.569 432.254 261.446 430.264 260.822 427.388C260.199 424.513 261.274 421.671 263.562 420.149L303.438 393.63C304.45 392.956 305.612 392.629 306.789 392.691L462.77 400.55C464.833 400.654 466.675 401.902 467.698 403.89C468.721 405.876 468.753 408.269 467.785 410.29L452.255 442.692C451.212 444.867 449.169 446.214 446.969 446.214C446.833 446.214 446.695 446.209 446.558 446.199Z" fill="#3F3D56"/>
<path d="M264.668 424.439L444.253 438.083L458.456 404.149L304.469 397.456L264.668 424.439Z" fill="white"/>
<path d="M353.04 143.519C382.844 143.519 407.005 116.738 407.005 83.7029C407.005 50.6676 382.844 23.8872 353.04 23.8872C323.236 23.8872 299.075 50.6676 299.075 83.7029C299.075 116.738 323.236 143.519 353.04 143.519Z" fill="#FFB6B6"/>
<path d="M370.422 87.5737C370.343 87.5886 370.225 87.6109 370.081 87.6372C367.271 88.1528 350.282 91.0582 333.153 83.826C325.897 80.7622 328.372 79.9986 312.212 69.3469C293.265 56.859 288.402 56.9462 286.991 51.1233C284.174 39.4959 299.218 21.2174 309.175 22.4209C311.797 22.7377 314.604 24.4701 318.971 23.2954C319.93 23.0374 324.13 21.9076 326.177 18.0544C328.004 14.6171 326.457 12.1375 327.191 9.31834C329.12 1.91852 345.191 -1.77439 359.282 0.834849C367.386 2.33559 373.69 6.4327 385.966 14.5657C407.333 28.7214 418.017 35.7992 420.418 46.6432C422.694 56.9214 417.231 61.3502 421.204 72.3526C424.903 82.5973 430.778 81.913 432.8 90.2005C436.054 103.537 423.978 118.173 418.948 124.27C413.433 130.955 408.159 134.624 401.157 139.494C392.368 145.608 387.974 148.665 382.69 148.354C373.112 147.79 363.584 138.168 363.213 129.382C363.074 126.089 364.313 125.102 367.38 113.782C368.658 109.066 369.544 105.173 370.083 102.675" fill="#2F2E41"/>
<path d="M407.41 408.052C410.882 408.204 413.524 411.651 413.715 415.387C413.914 419.265 411.482 422.836 408.56 424.682C405.137 426.845 400.864 427.192 397.01 426.82C393.543 426.485 389.771 425.29 387.54 422.117C385.663 419.447 384.972 415.413 386.568 412.382C388.151 409.377 391.518 408.547 394.334 409.753C397.314 411.029 399.187 414.033 399.206 417.583C399.227 421.519 397.177 425.154 394.3 427.33C391.196 429.677 387.29 430.432 383.597 430.422C379.572 430.412 375.565 429.476 371.862 427.737C368.393 426.108 364.927 423.759 362.447 420.567C360.121 417.575 358.729 413.423 360.02 409.542C361.079 406.359 363.753 404.407 366.816 404.677C369.621 404.924 372.457 406.727 373.702 409.6C375.106 412.84 374.476 416.728 372.689 419.625C370.625 422.97 367.363 424.85 363.741 425.122C359.885 425.411 356.067 423.892 352.896 421.545C349.96 419.372 347.379 416.589 344.226 414.781C342.709 413.911 341.057 413.357 339.34 413.36C337.152 413.363 335.049 414.159 332.922 414.621C331.119 415.013 329.26 415.241 327.481 414.602C325.959 414.056 324.534 413.054 323.575 411.618C322.667 410.259 322.349 408.557 322.863 406.943C323.266 405.678 325.096 406.223 324.689 407.501C323.749 410.451 326.973 412.619 329.23 412.89C330.942 413.095 332.708 412.547 334.36 412.118C336.081 411.672 337.841 411.216 339.621 411.264C345.926 411.436 350.095 417.41 355.179 420.652C360.524 424.059 368.351 424.297 371.624 417.525C372.813 415.066 373.058 411.796 371.425 409.498C370.065 407.584 367.648 406.439 365.457 406.81C362.706 407.276 361.336 410.18 361.436 413.067C361.558 416.601 363.78 419.472 366.15 421.588C371.425 426.299 378.42 428.699 385.167 428.278C388.333 428.08 391.697 427.167 394.156 424.83C396.281 422.812 397.731 419.529 397.221 416.385C396.779 413.664 394.72 411.6 392.232 411.326C389.687 411.046 387.698 413.049 387.585 415.866C387.457 419.036 389.156 421.681 391.618 423.124C394.406 424.759 397.786 424.962 400.876 424.784C404.157 424.595 407.576 423.636 409.872 420.867C411.831 418.505 412.573 415 410.769 412.267C409.972 411.06 408.774 410.21 407.41 410.151C406.195 410.097 406.189 407.998 407.41 408.052Z" fill="#6E6BE8"/>
<path d="M321.103 405.803L322.068 399.186L375.644 285.687C376.531 283.807 378.633 283.078 380.329 284.061C382.025 285.045 382.683 287.375 381.796 289.255L328.244 402.704L323.867 407.406C323.349 407.959 322.602 408.078 321.964 407.708C321.327 407.338 320.989 406.59 321.103 405.803Z" fill="#3F3D56"/>
<path d="M357.622 333.593C363.666 334.854 369.35 337.702 374.198 341.897L374.471 341.962L374.526 341.661L432.916 351.798L428.686 265.714L472.938 238.849L462.479 384.36C460.213 393.653 451.513 399.081 443.17 396.404L368.842 372.707L369.028 371.693L368.768 371.615C362.828 373.391 356.59 373.564 350.577 372.119C335.493 368.736 324.841 357.366 326.785 346.726C328.729 336.086 342.532 330.206 357.622 333.593Z" fill="#FFB6B6"/>
<path d="M397.542 198.798L447.409 183.405C447.409 183.405 473.605 204.745 476.762 227.834C477.137 230.58 478.178 358.493 477.077 361.819C468.921 386.461 424.054 347.127 424.054 347.127L397.542 198.798Z" fill="#6E6BE8"/>
<path d="M181.241 428.7L176.071 423.788C175.302 423.056 174.366 422.572 173.365 422.387L58.1758 401.107C55.5467 400.621 53.6046 398.517 53.1072 395.614C52.61 392.712 53.7208 389.965 56.0066 388.444L97.1008 361.115C98.4742 360.201 100.09 359.914 101.654 360.305L247.704 396.879C250.544 397.59 252.439 400.133 252.532 403.358C252.625 406.583 250.88 409.255 248.087 410.166L187.021 430.074C186.442 430.263 185.851 430.355 185.265 430.355C183.808 430.355 182.381 429.783 181.241 428.7Z" fill="#3F3D56"/>
<path d="M125.769 269.988C131.478 272.523 136.557 276.536 140.581 281.692L140.837 281.815L140.944 281.531L196.459 304.006L255.733 197.627L288.502 220.138L219.775 342.296C215.929 350.927 206.445 354.384 198.728 349.969L129.945 310.77L130.304 309.815L130.063 309.683C123.925 310.151 117.775 308.982 112.128 306.274C97.9204 299.718 89.4556 286.277 93.2216 276.256C96.9875 266.234 111.556 263.427 125.769 269.988Z" fill="#FFB6B6"/>
<path d="M319.32 216.832L293.102 173.376C293.102 173.376 261.904 180.221 249.052 198.725C247.446 201.038 192.264 289.744 191.909 293.615C189.42 320.714 252.841 333.411 252.841 333.411L319.32 216.832Z" fill="#6E6BE8"/>
<path d="M178.388 430.005L46.3461 409.776C41.9269 409.1 38.2794 405.59 37.0533 400.835L6.72676 283.185C5.69916 279.197 6.46631 275.068 8.83158 271.856C11.1969 268.643 14.6914 266.983 18.423 267.298L151.455 278.595C156.268 279.004 160.308 282.761 161.51 287.942L190.846 414.524C191.782 418.564 190.846 422.834 188.341 425.946C186.184 428.626 183.126 430.123 179.938 430.123C179.424 430.123 178.906 430.084 178.388 430.005Z" fill="#3F3D56"/>
<path d="M148.956 189.025C149.728 189.966 152.529 189.008 158.099 187.052C162.333 185.565 162.985 185.024 163.388 184.636C164.804 183.273 165.175 181.839 166.578 175.504C169.095 164.134 169.173 163.005 170.465 160.593C170.91 159.762 172.035 157.78 171.761 157.534C171.479 157.282 170.262 159.346 168.013 160.127C165.821 160.887 164.835 159.669 162.963 159.979C160.544 160.38 159.106 162.927 156.85 167.049C154.852 170.7 154.601 172.168 151.8 179.422C151.007 181.476 150.368 183.067 149.877 184.324C144.378 190.013 138.924 195.777 133.519 201.591C133.623 201.414 133.721 201.248 133.806 201.103C136.2 197.029 136.526 194.845 136.491 193.208C136.435 190.557 135.292 188.537 133.01 184.606C130.773 180.754 128.653 178.212 126.1 175.179C122.752 171.203 121.079 169.215 120.412 169.346C115.651 170.28 114.378 206.209 120.368 212.635C119.527 213.301 118.831 213.998 118.328 214.684C113.2 208.374 104.417 201.324 94.6867 200.456C88.6882 199.921 85.3774 202.008 84.348 202.724C79.59 206.037 76.7609 212.666 78.1818 214.537C79.5066 216.282 83.3332 212.316 90.8328 212.534C96.0657 212.687 100.153 214.791 102.58 216.04C107.671 218.661 109.533 221.237 113.286 223.002C111.527 224.609 110.132 226.615 109.257 228.486C108.954 228.832 108.652 229.181 108.349 229.527C104.476 227.108 100.115 225.334 95.5436 224.926C89.5449 224.391 86.2341 226.477 85.2047 227.194C81.998 229.427 79.6742 233.162 78.9304 235.936C78.4444 236.044 77.9945 236.168 77.5827 236.301C76.129 232.66 71.803 228.819 67.7806 226.884C60.8566 223.553 51.8625 224.436 50.9001 227.604C50.8694 227.705 50.8617 227.804 50.8482 227.904C51.6072 221.116 52.6377 214.376 53.9253 207.684C53.9689 207.875 54.0237 208.069 54.0968 208.272C55.806 213.03 60.4247 217.598 66.7203 219.967C71.6616 221.827 73.7312 220.863 74.2569 220.594C74.7592 220.336 76.9284 219.304 77.4599 217.252C78.4453 213.447 72.4108 202.203 68.6045 205.975C56.3748 218.092 54.6966 208.28 54.1349 206.629C55.1746 201.339 56.3714 196.079 57.7137 190.849C57.7369 190.881 57.7569 190.912 57.7809 190.944C60.4529 194.536 65.5949 197.067 71.6375 197.178C76.3801 197.266 77.9297 195.795 78.3172 195.4C78.6873 195.022 80.306 193.461 80.2516 191.521C80.1508 187.925 74.379 184.996 69.7609 184.489C65.5054 184.021 60.9229 185.465 58.6498 187.293C59.7067 183.377 60.8435 179.478 62.0562 175.595C65.162 177.001 69.5614 176.812 73.8832 174.671C77.4473 172.905 78.1403 171.209 78.3051 170.765C78.4624 170.341 79.1789 168.552 78.5287 167.126C77.3232 164.484 72.0988 164.528 68.4955 165.933C67.0115 166.511 65.6011 167.401 64.3922 168.407C66.5413 162.044 68.8839 155.725 71.4033 149.454L68.8784 148.754C65.6599 156.766 62.8539 164.882 60.4424 173.088C60.1425 170.681 59.3911 168.117 58.4017 166.034C55.4924 159.91 49.2784 155.315 47.177 156.806C46.7566 157.104 46.5796 157.589 46.4197 158.168C45.1315 162.821 46.1016 169.251 49.4942 175.159C52.1567 179.795 54.2074 180.446 54.7416 180.594C55.1927 180.718 56.9339 181.251 58.3652 180.564C57.4026 184.22 56.5126 187.892 55.7011 191.58C54.7245 188.892 52.8 186.029 50.7646 184.049C46.0712 179.483 38.7854 177.655 37.3041 179.881C37.0079 180.326 36.9994 180.85 37.0366 181.453C37.3352 186.309 40.3163 191.929 45.3908 196.101C49.3738 199.375 51.4988 199.17 52.0451 199.095C52.3668 199.052 53.3386 198.944 54.2756 198.475C53.4058 202.956 52.6455 207.459 51.9884 211.981C50.6742 206.922 46.2098 200.612 41.9964 202.619C34.5198 206.182 25.7311 200.709 24.7638 203.102C24.5121 203.725 24.7205 204.367 24.9613 205.064C26.8983 210.67 32.2481 216.102 39.5937 218.986C45.3589 221.25 47.798 220.156 48.4179 219.849C48.8287 219.646 50.1844 219.018 51.1943 217.853C50.4683 223.663 49.9118 229.503 49.5199 235.368C47.9611 231.596 43.5704 227.621 39.4599 225.572C32.2498 221.978 22.8195 222.765 21.7722 226.068C21.5628 226.729 21.728 227.366 21.975 228.081C23.9633 233.835 29.4541 239.41 36.9937 242.371C42.9112 244.695 45.4146 243.572 46.0509 243.257C46.5157 243.027 48.1574 242.267 49.2043 240.823C49.0702 243.534 48.9666 246.25 48.9012 248.972C48.8825 249.747 48.8716 250.522 48.858 251.297C48.7731 251.449 48.699 251.605 48.6496 251.768C48.4476 252.432 48.5851 253.072 48.8222 253.771C48.817 254.263 48.8142 254.755 48.8113 255.247C47.4921 253.922 45.9185 251.929 44.0258 249.089C42.3179 246.527 40.6961 248.407 39.6543 250.589C38.021 250.185 36.4631 250.435 35.238 251.704C27.0219 260.211 17.8068 255.697 17.6764 258.234C17.6388 258.966 17.9925 259.548 18.4384 260.179C22.0257 265.259 29.0682 268.964 37.4348 269.355C44.0013 269.661 46.1944 267.683 46.7436 267.151C46.9366 266.965 47.369 266.561 47.8373 265.994C48.2134 266.327 48.5794 266.628 48.9465 266.904C49.0909 271.774 49.3493 276.638 49.7324 281.493C49.421 281.524 49.1231 281.581 48.9012 281.606C45.7205 281.965 44.6488 277.209 39.844 275.471C38.2484 274.894 35.1743 274.264 33.5543 275.471C33.321 275.645 32.525 276.298 31.29 276.865C30.56 277.2 30.0023 277.356 29.7805 277.423C27.8091 278.021 25.9833 279.661 24.7488 280.769C22.4283 282.853 21.2681 283.896 20.7233 285.789C20.552 286.385 20.0698 288.06 20.7233 289.693C21.0322 290.464 21.7489 291.611 24.4972 292.76C26.1306 293.443 30.8947 295.435 36.5733 293.318C37.8665 292.836 36.8794 293.009 41.8567 290.251C45.7726 288.081 48.0628 287.043 48.398 284.952C48.5159 284.217 48.3971 283.321 48.9012 283C49.1813 282.822 49.5201 282.909 49.8582 283.044C50.1877 286.947 50.5991 290.844 51.0978 294.733H46.617C40.6671 294.733 35.3294 298.404 32.6873 304.313L15.9266 341.792C14.8685 344.158 14.3091 346.804 14.3091 349.445V445.819C14.3091 455.321 21.2835 463.051 29.8563 463.051H68.9782C77.551 463.051 84.5254 455.321 84.5254 445.819V357.077C84.5254 354.913 84.1638 352.795 83.4506 350.781L67.4769 305.67C65.5394 300.199 61.3433 296.329 56.3274 295.131C57.9363 293.016 59.5476 290.904 61.1717 288.799C63.2164 289.892 65.4658 290.79 67.8842 291.42C74.2822 293.087 76.7712 291.601 77.4009 291.192C78.0022 290.802 80.6088 289.217 81.0507 286.573C81.098 286.29 81.1163 286.003 81.1129 285.714C87.6666 291.619 91.0852 294.53 93.583 293.559C95.7304 292.725 96.9563 289.991 97.6583 287.537C98.3914 287.65 99.1689 287.766 99.9975 287.888C108.973 289.217 113.496 289.833 115.227 287.476C117.621 284.215 115.348 277.927 114.722 276.194C113.36 272.427 111.266 270.135 109.965 268.74C108.275 266.93 103.46 261.769 95.8786 261.081C94.2306 260.931 92.75 261.046 91.2418 261.396C90.7163 260.863 90.1616 260.341 89.5509 259.845C88.3872 258.9 87.238 258.2 86.0011 257.653C87.8985 255.349 89.8012 253.052 91.7127 250.765C92.0154 250.917 92.3027 251.065 92.5666 251.2C98.829 254.424 100.205 257.581 106.227 259.243C108.96 259.997 112.053 260.851 112.819 259.567C114.179 257.288 108.405 247.907 99.4814 241.56C100.083 240.854 100.686 240.15 101.289 239.446C102.105 239.825 102.824 240.195 103.437 240.51C109.699 243.734 111.075 246.891 117.098 248.553C119.83 249.307 122.923 250.16 123.689 248.877C124.903 246.843 120.436 239.153 113.122 233.011C115.131 232.304 117.795 231.52 121.245 231.62C126.478 231.773 130.566 233.877 132.992 235.126C139.255 238.35 140.631 241.507 146.653 243.169C149.385 243.923 152.479 244.777 153.244 243.493C155.267 240.104 141.531 221.008 125.099 219.542C123.824 219.428 122.677 219.438 121.641 219.523C121.498 219.26 121.342 218.99 121.178 218.715C126.738 218.913 137.595 217.152 146.837 224.343C149.501 226.417 154.678 231.295 163.341 235.302C166.11 236.583 167.502 237.213 167.886 236.687C169.258 234.804 157.845 219.309 141.787 211.676C135.42 208.649 131.487 208.363 128.689 208.821C129.12 208.276 129.54 207.714 129.945 207.149C136.198 200.352 142.529 193.626 148.918 186.99C148.608 188.05 148.619 188.614 148.956 189.025ZM68.7154 273.626C61.6531 271.091 53.1012 272.453 50.8713 275.336C50.5569 272.781 50.2837 270.222 50.0585 267.657C53.276 269.649 56.6333 270.183 63.0018 271.125C65.7143 271.527 68.0138 271.861 69.9588 272.07C70.22 272.855 70.4986 273.561 70.822 274.237C70.8594 274.315 70.8996 274.39 70.9378 274.467L70.8814 274.538C70.1562 274.19 69.4296 273.882 68.7154 273.626ZM49.9516 239.293C50.153 238.553 50.1571 237.764 50.0033 236.951C50.2231 234.005 50.4974 231.068 50.822 228.14C50.8136 228.588 50.9419 229.037 51.1166 229.523C53.08 234.988 58.385 240.234 65.6165 242.956C66.9654 243.464 68.1226 243.784 69.1194 243.979C68.6808 244.826 68.3448 245.652 68.1221 246.415C65.6568 244.22 62.4834 242.624 58.8828 244.317C57.903 244.778 57.3214 246.464 56.8162 248.48C53.4899 248.544 50.7104 249.313 49.3866 250.614C49.3937 250.072 49.3912 249.53 49.4043 248.986C49.4789 245.888 49.6167 242.799 49.8109 239.72C49.8639 239.582 49.9116 239.44 49.9516 239.293ZM49.396 255.232C49.5393 255.557 49.6963 255.881 49.8594 256.204C49.7114 256.083 49.5599 255.953 49.4045 255.812C49.4003 255.619 49.3992 255.425 49.396 255.232ZM55.0752 294.893C54.6879 294.836 54.2971 294.795 53.9026 294.771C52.9921 289.76 52.1513 284.753 51.4476 279.737C53.2982 282.992 56.3186 285.972 60.1659 288.232C58.4587 290.447 56.7656 292.669 55.0752 294.893ZM84.8832 257.21C82.4748 256.352 79.6486 255.942 75.7371 255.438C74.7459 253.911 73.7241 252.786 72.9689 251.977C72.5597 251.539 71.9317 250.669 71.118 249.651C73.2264 248.901 76.373 247.565 80.8193 247.694C84.8604 247.812 88.2141 249.093 90.6515 250.246C88.7208 252.558 86.7997 254.88 84.8832 257.21ZM98.5328 240.904C96.1662 239.319 93.5995 237.961 90.8975 237.007C91.1601 237.005 91.4171 236.996 91.6894 237.004C95.0402 237.102 97.9181 238 100.194 238.961C99.6402 239.608 99.0856 240.255 98.5328 240.904Z" fill="#CCCCCC"/>
</g>
<defs>
<linearGradient id="paint0_linear_54_3" x1="299.315" y1="38.3658" x2="308.039" y2="607.297" gradientUnits="userSpaceOnUse">
<stop stop-color="#6E6BE8"/>
<stop offset="1" stop-color="#D3BAF4"/>
</linearGradient>
<clipPath id="clip0_54_3">
<rect width="540" height="477" fill="white" transform="translate(0.000488281)"/>
</clipPath>
</defs>
</svg>
