<svg width="144" height="49" viewBox="0 0 144 49" fill="none" xmlns="http://www.w3.org/2000/svg">
<path d="M5.24 32.064C3.736 32.064 2.6 31.456 1.832 30.24C1.096 29.056 0.728 27.648 0.728 26.016C0.728 24.512 1.032 23.008 1.64 21.504C2.28 19.968 3.208 18.704 4.424 17.712C4.488 17.648 4.584 17.616 4.712 17.616C5.032 17.616 5.192 17.776 5.192 18.096C5.192 18.256 5.128 18.384 5 18.48C4.2 19.088 3.592 20.048 3.176 21.36C2.792 22.672 2.6 24.016 2.6 25.392C2.6 26.832 2.84 28.112 3.32 29.232C3.8 30.352 4.536 30.912 5.528 30.912C6.616 30.912 7.8 30.384 9.08 29.328C10.36 28.272 11.672 26.88 13.016 25.152C14.392 23.424 15.72 21.536 17 19.488C18.28 17.408 19.464 15.344 20.552 13.296C21.64 11.248 22.568 9.376 23.336 7.68C24.104 5.952 24.632 4.608 24.92 3.648C24.6 3.68 24.008 3.744 23.144 3.84C22.28 3.904 21.304 4.016 20.216 4.176C19.16 4.304 18.12 4.48 17.096 4.704C16.104 4.928 15.272 5.2 14.6 5.52C13.96 5.84 13.64 6.208 13.64 6.624C13.64 6.944 13.896 7.2 14.408 7.392C14.952 7.552 15.56 7.696 16.232 7.824C16.936 7.92 17.544 8.032 18.056 8.16C18.6 8.288 18.872 8.448 18.872 8.64C18.872 8.832 18.68 8.992 18.296 9.12C17.944 9.216 17.576 9.28 17.192 9.312C16.808 9.344 16.552 9.36 16.424 9.36C15.432 9.36 14.504 9.088 13.64 8.544C12.808 7.968 12.392 7.136 12.392 6.048C12.392 5.248 12.744 4.608 13.448 4.128C14.152 3.616 15.048 3.216 16.136 2.928C17.224 2.64 18.36 2.432 19.544 2.304C20.76 2.144 21.88 2.032 22.904 1.968C23.96 1.904 24.76 1.84 25.304 1.776C25.464 1.52 25.704 1.216 26.024 0.863997C26.376 0.479999 26.728 0.287999 27.08 0.287999C27.336 0.287999 27.656 0.463999 28.04 0.815998C28.424 1.136 28.712 1.376 28.904 1.536C29.192 1.6 29.72 1.664 30.488 1.728C31.288 1.76 32.136 1.824 33.032 1.92C33.928 2.016 34.696 2.16 35.336 2.352C36.008 2.544 36.344 2.816 36.344 3.168C36.344 3.296 36.2 3.376 35.912 3.408C35.656 3.44 35.352 3.456 35 3.456C34.52 3.456 34.056 3.44 33.608 3.408C33.16 3.376 32.904 3.36 32.84 3.36C32.2 3.36 31.544 3.376 30.872 3.408C30.232 3.408 29.592 3.424 28.952 3.456C28.248 4.608 27.368 6.112 26.312 7.968C25.288 9.792 24.136 11.776 22.856 13.92C21.576 16.064 20.216 18.208 18.776 20.352C17.336 22.496 15.848 24.448 14.312 26.208C12.808 27.968 11.288 29.376 9.752 30.432C8.216 31.52 6.712 32.064 5.24 32.064ZM35.45 30.336C34.81 30.336 34.138 30.064 33.434 29.52C32.73 28.976 32.378 28.352 32.378 27.648C32.378 27.008 32.538 26.256 32.858 25.392C33.178 24.528 33.546 23.744 33.962 23.04C32.97 24.096 31.962 25.152 30.938 26.208C29.946 27.264 28.97 28.336 28.01 29.424C27.69 29.808 27.306 30 26.858 30C26.25 30 25.674 29.68 25.13 29.04C24.618 28.4 24.362 27.792 24.362 27.216C24.362 27.056 24.378 26.928 24.41 26.832C24.634 26.224 24.89 25.632 25.178 25.056C25.498 24.448 25.818 23.872 26.138 23.328C26.49 22.72 26.858 22.144 27.242 21.6C27.658 21.024 28.074 20.448 28.49 19.872C28.65 19.68 28.794 19.488 28.922 19.296C29.082 19.072 29.226 18.848 29.354 18.624C29.45 18.464 29.498 18.272 29.498 18.048C29.498 17.824 29.482 17.632 29.45 17.472C29.77 17.056 30.202 16.656 30.746 16.272C31.29 15.856 31.818 15.648 32.33 15.648C32.458 15.648 32.666 15.696 32.954 15.792C33.274 15.856 33.562 15.952 33.818 16.08C34.106 16.176 34.25 16.288 34.25 16.416C34.25 16.544 34.186 16.672 34.058 16.8C33.898 16.96 33.722 17.12 33.53 17.28C33.338 17.44 33.162 17.616 33.002 17.808C32.266 18.544 31.562 19.328 30.89 20.16C30.218 20.96 29.578 21.776 28.97 22.608C28.778 22.896 28.474 23.328 28.058 23.904C27.674 24.448 27.322 25.008 27.002 25.584C26.682 26.16 26.522 26.624 26.522 26.976C26.522 27.296 26.666 27.456 26.954 27.456C27.274 27.456 27.738 27.248 28.346 26.832C28.986 26.384 29.674 25.824 30.41 25.152C31.146 24.448 31.866 23.728 32.57 22.992C33.306 22.256 33.946 21.584 34.49 20.976C35.066 20.368 35.466 19.92 35.69 19.632C36.362 18.832 37.018 17.936 37.658 16.944C37.914 16.56 38.218 16.224 38.57 15.936C38.954 15.616 39.37 15.456 39.818 15.456C40.074 15.456 40.394 15.488 40.778 15.552C41.194 15.584 41.402 15.776 41.402 16.128C41.402 16.256 41.354 16.384 41.258 16.512C41.194 16.64 41.114 16.752 41.018 16.848C39.962 17.936 38.954 19.088 37.994 20.304C37.066 21.488 36.282 22.784 35.642 24.192C35.418 24.672 35.194 25.312 34.97 26.112C34.746 26.88 34.634 27.536 34.634 28.08C34.634 28.624 34.842 28.896 35.258 28.896C35.546 28.896 35.834 28.8 36.122 28.608C36.474 28.416 36.954 28.032 37.562 27.456C38.17 26.848 38.81 26.176 39.482 25.44C40.186 24.672 40.842 23.952 41.45 23.28C42.058 22.576 42.522 22.032 42.842 21.648C42.906 21.584 42.97 21.536 43.034 21.504C43.098 21.44 43.162 21.408 43.226 21.408C43.45 21.408 43.562 21.536 43.562 21.792C43.562 21.92 43.53 22.016 43.466 22.08C43.402 22.144 43.338 22.224 43.274 22.32C42.282 23.472 41.29 24.64 40.298 25.824C39.338 27.008 38.362 28.176 37.37 29.328C37.146 29.616 36.874 29.856 36.554 30.048C36.234 30.24 35.866 30.336 35.45 30.336ZM49.0119 11.904C48.2759 11.904 47.9079 11.632 47.9079 11.088C47.9079 10.704 48.1159 10.288 48.5319 9.84C48.9479 9.392 49.5559 9.072 50.3559 8.88C50.8359 8.752 51.2199 8.688 51.5079 8.688C51.8279 8.656 52.1319 8.592 52.4199 8.496C52.2919 9.104 52.0199 9.76 51.6039 10.464C51.2199 11.168 50.7079 11.6 50.0679 11.76C49.7479 11.856 49.3959 11.904 49.0119 11.904ZM27.6999 48.384C26.2279 48.384 25.4919 47.648 25.4919 46.176C25.4919 46.016 25.5079 45.856 25.5399 45.696C25.5399 45.536 25.5559 45.376 25.5879 45.216C25.8439 44.064 26.3879 42.96 27.2199 41.904C28.0519 40.848 29.0279 39.856 30.1479 38.928C31.2679 38.032 32.4199 37.184 33.6039 36.384C34.7559 35.616 35.7959 34.944 36.7239 34.368C37.2679 34.016 37.9719 33.584 38.8359 33.072C39.6679 32.56 40.5639 32 41.5239 31.392C42.4839 30.816 43.3959 30.272 44.2599 29.76C44.5799 29.056 44.8839 28.176 45.1719 27.12C45.4919 26.064 45.7639 25.008 45.9879 23.952C46.2119 22.864 46.3399 21.936 46.3719 21.168C46.2439 20.944 46.0999 20.704 45.9399 20.448C45.7799 20.192 45.6999 19.936 45.6999 19.68C45.6999 19.36 45.7799 18.96 45.9399 18.48C46.0999 18 46.3239 17.584 46.6119 17.232C46.8999 16.848 47.2359 16.656 47.6199 16.656C47.6839 16.656 47.7479 16.672 47.8119 16.704C47.8759 16.704 47.9399 16.704 48.0039 16.704C48.4519 16.8 48.7399 16.928 48.8679 17.088C49.0279 17.216 49.1079 17.536 49.1079 18.048C49.1079 19.52 48.9319 21.104 48.5799 22.8C48.2279 24.496 47.8279 26.048 47.3799 27.456C48.0199 26.944 48.6119 26.448 49.1559 25.968C49.7319 25.488 50.2919 24.96 50.8359 24.384C51.3479 23.872 51.8279 23.344 52.2759 22.8C52.7559 22.256 53.2519 21.744 53.7639 21.264C53.8279 21.2 53.8919 21.152 53.9559 21.12C54.0519 21.056 54.1479 21.024 54.2439 21.024C54.4359 21.024 54.5319 21.12 54.5319 21.312C54.5319 21.472 54.2919 21.824 53.8119 22.368C53.3639 22.88 52.7879 23.488 52.0839 24.192C51.4119 24.896 50.6919 25.616 49.9239 26.352C49.1879 27.056 48.5159 27.696 47.9079 28.272C47.3319 28.816 46.9319 29.184 46.7079 29.376C45.2359 33.248 43.3159 36.608 40.9479 39.456C38.6119 42.336 35.6359 44.816 32.0199 46.896C31.4119 47.248 30.7239 47.584 29.9559 47.904C29.1879 48.224 28.4359 48.384 27.6999 48.384ZM28.8039 47.184C29.6679 47.184 30.6119 46.864 31.6359 46.224C32.6279 45.616 33.6199 44.848 34.6119 43.92C35.6039 42.992 36.5159 42.064 37.3479 41.136C38.1479 40.24 38.7879 39.488 39.2679 38.88C39.8119 38.144 40.3399 37.408 40.8519 36.672C41.3639 35.968 41.8439 35.232 42.2919 34.464C42.9639 33.344 43.5239 32.256 43.9719 31.2C44.0039 31.104 43.9719 31.04 43.8759 31.008C43.8119 31.008 43.7799 31.008 43.7799 31.008C42.7879 31.712 41.7799 32.4 40.7559 33.072C39.7639 33.776 38.7559 34.464 37.7319 35.136C37.2199 35.456 36.5319 35.92 35.6679 36.528C34.8039 37.168 33.8759 37.872 32.8839 38.64C31.8919 39.44 30.9479 40.256 30.0519 41.088C29.1559 41.952 28.4199 42.784 27.8439 43.584C27.2679 44.416 26.9799 45.152 26.9799 45.792C26.9799 46.304 27.1879 46.656 27.6039 46.848C27.9879 47.072 28.3879 47.184 28.8039 47.184ZM60.7119 30.432C60.4239 30.432 60.0879 30.304 59.7039 30.048C59.3519 29.792 59.0479 29.504 58.7919 29.184C58.5359 28.832 58.4079 28.512 58.4079 28.224C58.4079 27.744 58.5839 27.104 58.9359 26.304C59.2879 25.472 59.6879 24.656 60.1359 23.856C60.6159 23.056 60.9839 22.464 61.2399 22.08C60.7919 22.464 60.2159 23.088 59.5119 23.952C58.8399 24.784 58.1039 25.68 57.3039 26.64C56.5359 27.568 55.7839 28.368 55.0479 29.04C54.3439 29.712 53.7359 30.048 53.2239 30.048C52.5199 30.048 51.9439 29.808 51.4959 29.328C51.0799 28.816 50.8719 28.208 50.8719 27.504C50.8719 26.544 51.1439 25.52 51.6879 24.432C52.2319 23.312 52.9359 22.24 53.7999 21.216C54.6959 20.16 55.6559 19.2 56.6799 18.336C57.7359 17.472 58.7599 16.784 59.7519 16.272C60.7759 15.76 61.6879 15.504 62.4879 15.504C63.3519 15.504 64.0559 15.712 64.5999 16.128C65.1439 16.512 65.4159 17.104 65.4159 17.904C65.4159 18.032 65.3839 18.272 65.3199 18.624C65.2879 18.976 65.1759 19.152 64.9839 19.152C64.8879 19.152 64.7279 19.008 64.5039 18.72C64.3119 18.432 64.0399 18.144 63.6879 17.856C63.3359 17.568 62.8879 17.424 62.3439 17.424C61.4479 17.424 60.5039 17.76 59.5119 18.432C58.5519 19.072 57.6239 19.904 56.7279 20.928C55.8319 21.92 55.0479 22.944 54.3759 24C53.7039 25.056 53.1919 25.968 52.8399 26.736C52.7439 26.96 52.6479 27.2 52.5519 27.456C52.4879 27.712 52.4559 27.968 52.4559 28.224C52.4559 28.512 52.5359 28.656 52.6959 28.656C52.8559 28.656 53.1919 28.48 53.7039 28.128C54.2479 27.776 54.6319 27.52 54.8559 27.36C55.9759 26.56 57.0319 25.648 58.0239 24.624C59.0479 23.6 59.9599 22.544 60.7599 21.456C61.0159 21.104 61.2559 20.752 61.4799 20.4C61.7039 20.048 61.9279 19.712 62.1519 19.392C62.3119 19.168 62.4719 19.056 62.6319 19.056C62.9839 19.056 63.3199 19.296 63.6399 19.776C63.9919 20.256 64.1679 20.672 64.1679 21.024C64.1679 21.184 64.1359 21.28 64.0719 21.312C64.0399 21.344 63.9439 21.44 63.7839 21.6C63.3039 22.08 62.8239 22.752 62.3439 23.616C61.8959 24.48 61.4959 25.36 61.1439 26.256C60.8239 27.12 60.5839 27.856 60.4239 28.464C60.3919 28.56 60.3599 28.688 60.3279 28.848C60.3279 28.976 60.4079 29.024 60.5679 28.992C60.8879 28.896 61.3999 28.544 62.1039 27.936C62.8399 27.296 63.6239 26.576 64.4559 25.776C65.3199 24.944 66.0879 24.176 66.7599 23.472C67.4639 22.768 67.9279 22.272 68.1519 21.984C68.2159 21.92 68.2799 21.856 68.3439 21.792C68.4399 21.696 68.5359 21.648 68.6319 21.648C68.8559 21.648 68.9679 21.76 68.9679 21.984C68.9679 22.112 68.7119 22.496 68.1999 23.136C67.6879 23.744 67.0479 24.464 66.2799 25.296C65.5119 26.096 64.7279 26.896 63.9279 27.696C63.1279 28.464 62.4239 29.12 61.8159 29.664C61.2399 30.176 60.8719 30.432 60.7119 30.432ZM98.336 33.264C97.984 33.104 97.728 32.848 97.568 32.496C97.408 32.144 97.328 31.712 97.328 31.2C97.328 30.176 97.568 28.928 98.048 27.456C98.56 25.952 99.072 24.512 99.584 23.136C100 22.08 100.448 20.832 100.928 19.392C101.44 17.92 101.952 16.384 102.464 14.784C103.008 13.152 103.52 11.584 104 10.08C104.48 8.576 104.88 7.248 105.2 6.096C105.552 4.912 105.792 4.048 105.92 3.504C103.424 4.496 101.184 5.68 99.2 7.056C97.216 8.4 95.36 9.92 93.632 11.616C91.936 13.28 90.224 15.104 88.496 17.088H95.264C95.392 17.088 95.68 17.104 96.128 17.136C96.576 17.136 97.056 17.168 97.568 17.232C98.08 17.264 98.512 17.328 98.864 17.424C99.248 17.488 99.44 17.6 99.44 17.76C99.44 18.016 99.12 18.24 98.48 18.432C97.872 18.592 97.072 18.736 96.08 18.864C95.12 18.96 94.112 19.04 93.056 19.104C92 19.136 91.024 19.168 90.128 19.2C89.232 19.232 88.56 19.248 88.112 19.248C87.504 19.248 86.832 19.584 86.096 20.256C85.36 20.928 84.624 21.808 83.888 22.896C83.184 23.984 82.512 25.152 81.872 26.4C81.264 27.616 80.72 28.784 80.24 29.904C79.792 31.024 79.472 31.968 79.28 32.736C79.28 32.8 79.264 32.88 79.232 32.976C79.2 33.072 79.136 33.12 79.04 33.12C78.848 33.12 78.656 32.944 78.464 32.592C78.24 32.272 78.128 32.032 78.128 31.872C78.128 31.008 78.336 30 78.752 28.848C79.168 27.696 79.68 26.528 80.288 25.344C80.928 24.128 81.584 22.992 82.256 21.936C82.96 20.88 83.584 20.016 84.128 19.344C83.328 19.344 82.512 19.36 81.68 19.392C80.848 19.392 80.016 19.392 79.184 19.392C78.992 19.392 78.8 19.328 78.608 19.2C78.384 19.04 78.24 18.864 78.176 18.672C78.304 18.32 78.688 18.08 79.328 17.952C79.968 17.792 80.704 17.696 81.536 17.664C82.4 17.6 83.216 17.552 83.984 17.52C84.752 17.488 85.312 17.424 85.664 17.328C86.24 16.624 87.024 15.76 88.016 14.736C89.008 13.712 90.144 12.624 91.424 11.472C92.704 10.32 94.048 9.184 95.456 8.064C96.864 6.944 98.256 5.92 99.632 4.992C101.008 4.064 102.304 3.328 103.52 2.784C104.736 2.208 105.776 1.92 106.64 1.92C106.896 1.92 107.248 1.968 107.696 2.064C108.144 2.128 108.56 2.256 108.944 2.448C109.328 2.64 109.52 2.912 109.52 3.264C109.52 3.68 109.296 4.496 108.848 5.712C108.432 6.928 107.872 8.384 107.168 10.08C106.464 11.744 105.712 13.504 104.912 15.36C104.112 17.184 103.344 18.928 102.608 20.592C101.872 22.256 101.248 23.664 100.736 24.816C100 26.608 99.456 28.048 99.104 29.136C98.784 30.224 98.624 31.088 98.624 31.728C98.624 32.208 98.72 32.624 98.912 32.976C98.944 33.008 98.88 33.072 98.72 33.168C98.56 33.264 98.432 33.296 98.336 33.264ZM110.228 30.576C109.716 30.576 109.172 30.32 108.596 29.808C108.052 29.264 107.78 28.736 107.78 28.224C107.78 27.584 108.004 26.864 108.452 26.064C108.9 25.232 109.428 24.432 110.036 23.664C110.644 22.896 111.172 22.24 111.62 21.696C112.068 21.12 112.292 20.736 112.292 20.544V20.448C112.004 20.192 111.732 19.952 111.476 19.728C111.22 19.472 110.868 19.344 110.42 19.344C110.1 19.344 109.684 19.536 109.172 19.92C108.692 20.304 108.196 20.752 107.684 21.264C107.172 21.776 106.708 22.256 106.292 22.704C105.876 23.152 105.572 23.456 105.38 23.616C105.252 23.744 105.124 23.824 104.996 23.856C104.9 23.888 104.82 23.904 104.756 23.904C104.628 23.904 104.564 23.84 104.564 23.712C104.564 23.584 104.628 23.456 104.756 23.328C105.268 22.656 105.86 21.968 106.532 21.264C107.204 20.56 107.812 19.92 108.356 19.344C108.9 18.736 109.22 18.304 109.316 18.048C109.572 17.312 109.828 16.656 110.084 16.08C110.372 15.504 110.82 14.96 111.428 14.448C111.684 14.192 111.988 13.984 112.34 13.824C112.692 13.664 113.044 13.584 113.396 13.584C113.716 13.584 113.972 13.68 114.164 13.872C114.388 14.032 114.5 14.288 114.5 14.64C114.5 15.024 114.324 15.408 113.972 15.792C113.652 16.176 113.268 16.544 112.82 16.896C112.372 17.216 111.972 17.504 111.62 17.76C111.3 18.016 111.156 18.224 111.188 18.384C111.38 18.512 111.748 18.672 112.292 18.864C112.868 19.056 113.268 19.152 113.492 19.152C113.748 19.152 113.988 19.104 114.212 19.008C114.436 18.912 114.66 18.864 114.884 18.864C115.204 18.864 115.524 18.96 115.844 19.152C116.164 19.344 116.324 19.632 116.324 20.016C116.324 20.336 116.196 20.64 115.94 20.928C115.716 21.184 115.476 21.408 115.22 21.6C114.836 21.888 114.324 22.32 113.684 22.896C113.044 23.472 112.388 24.112 111.716 24.816C111.076 25.52 110.516 26.224 110.036 26.928C109.588 27.6 109.364 28.192 109.364 28.704C109.364 28.832 109.396 28.96 109.46 29.088C109.492 29.12 109.556 29.136 109.652 29.136C110.292 29.136 111.012 28.848 111.812 28.272C112.612 27.696 113.412 26.992 114.212 26.16C115.044 25.328 115.812 24.512 116.516 23.712C117.252 22.88 117.876 22.24 118.388 21.792C118.452 21.728 118.532 21.664 118.628 21.6C118.724 21.536 118.82 21.504 118.916 21.504C119.076 21.504 119.156 21.616 119.156 21.84C119.156 21.968 118.932 22.288 118.484 22.8C118.068 23.312 117.524 23.92 116.852 24.624C116.18 25.328 115.476 26.048 114.74 26.784C114.036 27.52 113.38 28.176 112.772 28.752C112.164 29.296 111.732 29.68 111.476 29.904C111.124 30.192 110.868 30.368 110.708 30.432C110.548 30.528 110.388 30.576 110.228 30.576ZM133.309 32.016C132.925 32.016 132.525 31.92 132.109 31.728C131.725 31.568 131.341 31.344 130.957 31.056C130.541 30.704 130.141 30.208 129.757 29.568C129.373 28.928 129.053 28.256 128.797 27.552L128.749 27.456C127.149 28.736 125.629 29.728 124.189 30.432C122.781 31.136 121.517 31.584 120.397 31.776C120.269 31.808 120.157 31.824 120.061 31.824C119.965 31.824 119.869 31.824 119.773 31.824C118.909 31.824 118.333 31.52 118.045 30.912C117.757 30.304 117.629 29.6 117.661 28.8C117.693 27.712 117.965 26.512 118.477 25.2C118.989 23.888 119.613 22.576 120.349 21.264C121.085 19.952 121.805 18.752 122.509 17.664C123.213 16.576 123.757 15.728 124.141 15.12C123.757 15.28 123.293 15.472 122.749 15.696C122.205 15.888 121.693 16.064 121.213 16.224C120.733 16.384 120.397 16.464 120.205 16.464C119.917 16.464 119.773 16.272 119.773 15.888C119.773 15.504 119.869 15.152 120.061 14.832C120.253 14.512 120.541 14.288 120.925 14.16C121.565 13.936 122.269 13.728 123.037 13.536C123.805 13.312 124.605 13.104 125.437 12.912C126.653 11.184 127.965 9.584 129.373 8.112C130.781 6.608 132.253 5.36 133.789 4.368C134.077 4.176 134.397 4.272 134.749 4.656C135.101 5.008 135.293 5.376 135.325 5.76C135.325 6.112 135.197 6.352 134.941 6.48C133.597 7.28 132.413 8.176 131.389 9.168C130.397 10.16 129.341 11.248 128.221 12.432C128.477 12.4 128.909 12.352 129.517 12.288C130.125 12.224 130.781 12.16 131.485 12.096C132.189 12.032 132.829 11.984 133.405 11.952C134.013 11.888 134.429 11.856 134.653 11.856C134.781 11.856 134.989 11.872 135.277 11.904C135.597 11.904 135.885 11.936 136.141 12C136.429 12.064 136.573 12.192 136.573 12.384C136.573 12.608 136.397 12.72 136.045 12.72C135.693 12.72 135.437 12.72 135.277 12.72C134.893 12.72 134.333 12.768 133.597 12.864C132.861 12.96 132.045 13.088 131.149 13.248C130.285 13.376 129.469 13.52 128.701 13.68C127.965 13.84 127.405 13.984 127.021 14.112C126.285 15.008 125.597 15.92 124.957 16.848C124.349 17.744 123.757 18.704 123.181 19.728C122.957 20.112 122.653 20.72 122.269 21.552C121.917 22.352 121.549 23.248 121.165 24.24C120.781 25.232 120.461 26.192 120.205 27.12C119.949 28.016 119.821 28.768 119.821 29.376C119.821 30.208 120.109 30.56 120.685 30.432C121.325 30.304 122.125 30.048 123.085 29.664C124.077 29.248 125.053 28.768 126.013 28.224C127.005 27.648 127.821 27.056 128.461 26.448C128.429 26.288 128.413 26.144 128.413 26.016C128.413 25.888 128.413 25.744 128.413 25.584C128.189 25.424 127.885 25.232 127.501 25.008C127.149 24.752 126.973 24.336 126.973 23.76C126.973 23.088 127.181 22.432 127.597 21.792C128.013 21.152 128.365 20.832 128.653 20.832C128.877 20.832 128.989 21.024 128.989 21.408C128.989 21.536 128.989 21.872 128.989 22.416C129.021 22.96 129.053 23.52 129.085 24.096C129.117 24.64 129.149 25.008 129.181 25.2C129.309 25.328 129.421 25.408 129.517 25.44L131.965 22.8C132.893 21.744 133.821 20.72 134.749 19.728C135.677 18.736 136.525 17.84 137.293 17.04C137.837 16.208 138.429 15.504 139.069 14.928C139.741 14.352 140.509 14.064 141.373 14.064C141.981 14.064 142.413 14.176 142.669 14.4C142.925 14.624 143.053 14.88 143.053 15.168C143.053 15.456 142.925 15.728 142.669 15.984C142.445 16.208 142.109 16.32 141.661 16.32C140.957 16.288 140.349 16.32 139.837 16.416C139.325 16.48 138.957 16.704 138.733 17.088C138.509 17.504 138.253 18.192 137.965 19.152C137.677 20.112 137.389 21.2 137.101 22.416C136.845 23.632 136.621 24.816 136.429 25.968C137.101 25.84 137.741 25.68 138.349 25.488C138.989 25.264 139.677 24.896 140.413 24.384C141.149 23.872 141.997 23.12 142.957 22.128C143.117 21.936 143.277 21.84 143.437 21.84C143.533 21.84 143.581 21.904 143.581 22.032C143.581 22.096 143.549 22.208 143.485 22.368C143.421 22.528 143.293 22.736 143.101 22.992C142.717 23.504 142.237 24.016 141.661 24.528C141.117 25.008 140.637 25.376 140.221 25.632C139.357 26.144 138.541 26.464 137.773 26.592C137.005 26.688 136.509 26.752 136.285 26.784C136.157 27.456 136.045 28.016 135.949 28.464C135.853 28.88 135.789 29.184 135.757 29.376C135.597 30.304 135.277 30.976 134.797 31.392C134.349 31.808 133.853 32.016 133.309 32.016ZM134.413 25.968C134.573 25.232 134.781 24.256 135.037 23.04C135.325 21.824 135.709 20.608 136.189 19.392C135.613 20.032 134.989 20.72 134.317 21.456C133.645 22.16 132.957 22.896 132.253 23.664C131.997 24.016 131.725 24.368 131.437 24.72C131.181 25.04 130.893 25.376 130.573 25.728C131.885 25.984 133.165 26.064 134.413 25.968ZM132.589 29.712C132.845 29.712 133.101 29.536 133.357 29.184C133.645 28.8 133.917 28.096 134.173 27.072C134.173 26.976 134.189 26.912 134.221 26.88C133.485 26.848 132.765 26.8 132.061 26.736C131.357 26.672 130.685 26.528 130.045 26.304C129.917 26.432 129.821 26.528 129.757 26.592C129.693 26.656 129.629 26.72 129.565 26.784C129.821 27.296 130.125 27.808 130.477 28.32C130.829 28.8 131.229 29.152 131.677 29.376C131.837 29.472 131.997 29.552 132.157 29.616C132.317 29.68 132.461 29.712 132.589 29.712Z" fill="#6E6BE8"/>
</svg>
